<svg width="239" height="46" viewBox="0 0 239 46" fill="none" xmlns="http://www.w3.org/2000/svg">
<path d="M20.54 34V17.665C19.31 17.155 18.215 16.795 17.255 16.585C16.295 16.345 15.335 16.18 14.375 16.09C14.015 17.47 13.7 18.88 13.43 20.32C13.16 21.73 12.935 23.14 12.755 24.55C12.575 25.93 12.44 27.28 12.35 28.6C12.26 29.92 12.215 31.135 12.215 32.245C12.215 33.505 12.26 34.54 12.35 35.35C12.47 36.16 12.605 36.805 12.755 37.285C12.935 37.795 13.115 38.185 13.295 38.455C13.505 38.725 13.685 38.95 13.835 39.13C13.085 39.13 12.275 39.085 11.405 38.995C10.565 38.905 9.77 38.605 9.02 38.095C8.3 37.615 7.7 36.865 7.22 35.845C6.74 34.825 6.5 33.37 6.5 31.48C6.5 30.49 6.575 29.395 6.725 28.195C6.875 26.995 7.085 25.735 7.355 24.415C7.625 23.065 7.955 21.685 8.345 20.275C8.765 18.835 9.23 17.41 9.74 16C8.3 16.09 7.145 16.315 6.275 16.675C5.405 17.035 4.895 17.605 4.745 18.385C4.895 18.385 5.09 18.58 5.33 18.97C5.57 19.33 5.69 19.69 5.69 20.05C5.69 20.5 5.48 20.86 5.06 21.13C4.64 21.4 4.115 21.535 3.485 21.535C2.615 21.535 1.835 21.265 1.145 20.725C0.425 20.185 0.0649999 19.39 0.0649999 18.34C0.0649999 16.9 0.8 15.715 2.27 14.785C3.74 13.855 5.675 13.39 8.075 13.39C8.795 13.39 9.68 13.435 10.73 13.525C11.48 11.725 12.32 10.03 13.25 8.44C14.18 6.82 15.185 5.41 16.265 4.21C17.345 2.98 18.485 2.02 19.685 1.33C20.885 0.609998 22.145 0.249997 23.465 0.249997C23.915 0.249997 24.47 0.294998 25.13 0.384998C25.82 0.474999 26.465 0.639999 27.065 0.879997V34H20.54ZM20.54 3.49C19.4 4.24 18.35 5.575 17.39 7.495C16.43 9.415 15.605 11.635 14.915 14.155C15.845 14.335 16.775 14.56 17.705 14.83C18.665 15.07 19.61 15.355 20.54 15.685V3.49ZM42.7043 20.41C42.7043 18.61 42.4943 17.335 42.0743 16.585C41.6843 15.805 41.1143 15.415 40.3643 15.415C39.9143 15.415 39.5243 15.535 39.1943 15.775C38.8943 16.015 38.6393 16.33 38.4293 16.72C38.2193 17.11 38.0543 17.56 37.9343 18.07C37.8143 18.55 37.7393 19.045 37.7093 19.555V34H31.2293V11.5H37.7093V13.84C38.3993 12.79 39.1793 12.115 40.0493 11.815C40.9193 11.485 41.7443 11.32 42.5243 11.32C43.3643 11.32 44.1593 11.455 44.9093 11.725C45.6893 11.995 46.3643 12.46 46.9343 13.12C47.5343 13.75 47.9993 14.605 48.3293 15.685C48.6593 16.735 48.8243 18.04 48.8243 19.6C48.8243 19.99 48.8093 20.485 48.7793 21.085C48.7793 21.655 48.7643 22.24 48.7343 22.84C48.7043 23.44 48.6743 24.025 48.6443 24.595C48.6443 25.165 48.6443 25.645 48.6443 26.035C48.6443 27.325 48.7793 28.3 49.0493 28.96C49.3193 29.59 49.9193 29.905 50.8493 29.905C51.8693 29.905 52.5743 29.53 52.9643 28.78C53.3843 28.03 53.7143 27.085 53.9543 25.945H55.8443C55.6043 27.745 55.2443 29.2 54.7643 30.31C54.2843 31.39 53.7443 32.23 53.1443 32.83C52.5443 33.4 51.8993 33.79 51.2093 34C50.5193 34.18 49.8443 34.27 49.1843 34.27C46.8743 34.27 45.1943 33.505 44.1443 31.975C43.1243 30.445 42.6143 28.405 42.6143 25.855C42.6143 25.585 42.6143 25.21 42.6143 24.73C42.6443 24.22 42.6593 23.695 42.6593 23.155C42.6593 22.615 42.6593 22.105 42.6593 21.625C42.6893 21.115 42.7043 20.71 42.7043 20.41ZM60.429 11.5V26.8C60.429 28.06 60.594 28.9 60.924 29.32C61.284 29.71 61.899 29.905 62.769 29.905C63.639 29.905 64.359 29.53 64.929 28.78C65.529 28.03 65.874 27.085 65.964 25.945H67.854C67.614 27.775 67.194 29.245 66.594 30.355C65.994 31.435 65.319 32.275 64.569 32.875C63.819 33.445 63.054 33.82 62.274 34C61.494 34.18 60.804 34.27 60.204 34.27C57.894 34.27 56.274 33.64 55.344 32.38C54.414 31.09 53.949 29.395 53.949 27.295V11.5H60.429ZM53.454 5.515C53.454 4.525 53.799 3.685 54.489 2.995C55.179 2.275 56.019 1.915 57.009 1.915C57.999 1.915 58.839 2.275 59.529 2.995C60.249 3.685 60.609 4.525 60.609 5.515C60.609 6.505 60.249 7.345 59.529 8.035C58.839 8.725 57.999 9.07 57.009 9.07C56.019 9.07 55.179 8.725 54.489 8.035C53.799 7.345 53.454 6.505 53.454 5.515ZM88.5361 20.41C88.5361 18.61 88.3261 17.335 87.9061 16.585C87.4861 15.805 86.9161 15.415 86.1961 15.415C85.3261 15.415 84.6811 15.835 84.2611 16.675C83.8711 17.485 83.6311 18.445 83.5411 19.555V34H77.0611V18.475C77.0611 18.115 77.0311 17.755 76.9711 17.395C76.9111 17.005 76.8061 16.675 76.6561 16.405C76.5061 16.105 76.2961 15.865 76.0261 15.685C75.7861 15.475 75.4711 15.37 75.0811 15.37C74.2711 15.37 73.6411 15.79 73.1911 16.63C72.7711 17.44 72.5161 18.415 72.4261 19.555V34H65.9461V11.5H72.4261V13.84C73.1461 12.76 73.9411 12.07 74.8111 11.77C75.7111 11.44 76.5511 11.275 77.3311 11.275C78.4411 11.275 79.4761 11.545 80.4361 12.085C81.3961 12.625 82.1761 13.645 82.7761 15.145C83.1361 14.335 83.5411 13.675 83.9911 13.165C84.4711 12.655 84.9511 12.265 85.4311 11.995C85.9411 11.725 86.4361 11.545 86.9161 11.455C87.4261 11.365 87.9061 11.32 88.3561 11.32C89.1961 11.32 89.9911 11.455 90.7411 11.725C91.5211 11.995 92.1961 12.46 92.7661 13.12C93.3661 13.75 93.8311 14.605 94.1611 15.685C94.4911 16.735 94.6561 18.04 94.6561 19.6C94.6561 19.99 94.6411 20.485 94.6111 21.085C94.6111 21.655 94.5961 22.24 94.5661 22.84C94.5361 23.44 94.5061 24.025 94.4761 24.595C94.4761 25.165 94.4761 25.645 94.4761 26.035C94.4761 27.325 94.6261 28.3 94.9261 28.96C95.2561 29.59 95.8861 29.905 96.8161 29.905C97.3261 29.905 97.7461 29.815 98.0761 29.635C98.4061 29.425 98.6761 29.14 98.8861 28.78C99.0961 28.42 99.2611 28 99.3811 27.52C99.5311 27.04 99.6661 26.515 99.7861 25.945H101.676C101.436 27.715 101.076 29.155 100.596 30.265C100.116 31.345 99.5761 32.185 98.9761 32.785C98.3761 33.385 97.7161 33.79 96.9961 34C96.3061 34.18 95.6161 34.27 94.9261 34.27C92.6761 34.27 91.0261 33.505 89.9761 31.975C88.9561 30.445 88.4461 28.405 88.4461 25.855C88.4461 25.585 88.4461 25.21 88.4461 24.73C88.4761 24.22 88.4911 23.695 88.4911 23.155C88.4911 22.615 88.4911 22.09 88.4911 21.58C88.5211 21.07 88.5361 20.68 88.5361 20.41ZM118.324 11.5V26.8C118.324 28.06 118.489 28.9 118.819 29.32C119.179 29.71 119.794 29.905 120.664 29.905C121.534 29.905 122.254 29.53 122.824 28.78C123.424 28.03 123.769 27.085 123.859 25.945H125.749C125.509 27.775 125.089 29.245 124.489 30.355C123.889 31.435 123.214 32.275 122.464 32.875C121.714 33.445 120.949 33.82 120.169 34C119.389 34.18 118.699 34.27 118.099 34.27C116.509 34.27 115.294 33.91 114.454 33.19C113.644 32.44 113.074 31.42 112.744 30.13C112.504 30.64 112.219 31.15 111.889 31.66C111.559 32.14 111.154 32.575 110.674 32.965C110.224 33.355 109.684 33.67 109.054 33.91C108.454 34.15 107.749 34.27 106.939 34.27C105.979 34.27 105.034 34.09 104.104 33.73C103.174 33.37 102.319 32.785 101.539 31.975C100.789 31.165 100.174 30.1 99.6939 28.78C99.2439 27.43 99.0189 25.78 99.0189 23.83C99.0189 22.45 99.1689 21.025 99.4689 19.555C99.7989 18.085 100.294 16.735 100.954 15.505C101.644 14.275 102.529 13.27 103.609 12.49C104.719 11.68 106.054 11.275 107.614 11.275C107.974 11.275 108.364 11.305 108.784 11.365C109.204 11.395 109.609 11.5 109.999 11.68C110.389 11.83 110.749 12.07 111.079 12.4C111.409 12.7 111.664 13.12 111.844 13.66V11.5H118.324ZM111.844 15.82C111.814 15.7 111.754 15.55 111.664 15.37C111.574 15.16 111.439 14.965 111.259 14.785C111.079 14.575 110.854 14.41 110.584 14.29C110.314 14.14 109.999 14.065 109.639 14.065C108.919 14.065 108.289 14.38 107.749 15.01C107.239 15.61 106.819 16.375 106.489 17.305C106.189 18.205 105.964 19.21 105.814 20.32C105.664 21.4 105.589 22.435 105.589 23.425C105.589 25.015 105.709 26.26 105.949 27.16C106.189 28.03 106.474 28.675 106.804 29.095C107.164 29.485 107.539 29.725 107.929 29.815C108.319 29.875 108.649 29.905 108.919 29.905C109.249 29.905 109.579 29.83 109.909 29.68C110.269 29.5 110.584 29.245 110.854 28.915C111.154 28.585 111.394 28.18 111.574 27.7C111.754 27.19 111.844 26.605 111.844 25.945V15.82ZM129.95 2.5V26.8C129.95 28.06 130.115 28.9 130.445 29.32C130.805 29.71 131.42 29.905 132.29 29.905C133.16 29.905 133.88 29.53 134.45 28.78C135.05 28.03 135.395 27.085 135.485 25.945H137.375C137.135 27.775 136.715 29.245 136.115 30.355C135.515 31.435 134.84 32.275 134.09 32.875C133.34 33.445 132.575 33.82 131.795 34C131.015 34.18 130.325 34.27 129.725 34.27C127.415 34.27 125.795 33.64 124.865 32.38C123.935 31.09 123.47 29.395 123.47 27.295V3.4L129.95 2.5ZM134.973 5.515C134.973 4.525 135.318 3.685 136.008 2.995C136.698 2.275 137.538 1.915 138.528 1.915C139.518 1.915 140.358 2.275 141.048 2.995C141.768 3.685 142.128 4.525 142.128 5.515C142.128 6.505 141.768 7.345 141.048 8.035C140.358 8.725 139.518 9.07 138.528 9.07C137.538 9.07 136.698 8.725 136.008 8.035C135.318 7.345 134.973 6.505 134.973 5.515ZM141.948 11.5V26.8C141.948 28.06 142.113 28.9 142.443 29.32C142.803 29.71 143.418 29.905 144.288 29.905C144.678 29.905 144.963 29.875 145.143 29.815C145.353 29.755 145.533 29.695 145.683 29.635C145.713 29.785 145.728 29.935 145.728 30.085C145.728 30.235 145.728 30.385 145.728 30.535C145.728 31.285 145.593 31.9 145.323 32.38C145.083 32.86 144.753 33.25 144.333 33.55C143.943 33.82 143.508 34 143.028 34.09C142.578 34.21 142.143 34.27 141.723 34.27C139.413 34.27 137.793 33.64 136.863 32.38C135.933 31.09 135.468 29.395 135.468 27.295V11.5H141.948Z" fill="#27304B"/>
<path d="M168.73 7C168.58 6.13 168.37 5.455 168.1 4.975C167.86 4.495 167.38 4.255 166.66 4.255C166.36 4.255 166.06 4.315 165.76 4.435C165.46 4.525 165.19 4.705 164.95 4.975C164.71 5.245 164.515 5.62 164.365 6.1C164.215 6.58 164.14 7.195 164.14 7.945V11.5H167.425V13.3H164.14V37.6C164.14 39.22 163.93 40.525 163.51 41.515C163.12 42.505 162.625 43.27 162.025 43.81C161.425 44.38 160.75 44.755 160 44.935C159.28 45.145 158.605 45.25 157.975 45.25C157.075 45.25 156.22 45.1 155.41 44.8C154.6 44.53 153.88 44.125 153.25 43.585C152.62 43.075 152.125 42.445 151.765 41.695C151.405 40.975 151.225 40.18 151.225 39.31C151.225 38.5 151.39 37.795 151.72 37.195C152.05 36.625 152.5 36.13 153.07 35.71C153.64 35.29 154.315 34.915 155.095 34.585C155.875 34.255 156.73 33.94 157.66 33.64V7.945C157.66 6.355 157.855 5.065 158.245 4.075C158.665 3.055 159.19 2.275 159.82 1.735C160.45 1.165 161.14 0.789998 161.89 0.609998C162.64 0.399999 163.36 0.294999 164.05 0.294999C165.1 0.294999 166.03 0.474999 166.84 0.834998C167.65 1.195 168.34 1.675 168.91 2.275C169.48 2.875 169.915 3.58 170.215 4.39C170.545 5.2 170.755 6.07 170.845 7H168.73ZM153.61 38.995C153.61 39.385 153.685 39.715 153.835 39.985C153.985 40.285 154.18 40.525 154.42 40.705C154.63 40.885 154.87 41.02 155.14 41.11C155.41 41.2 155.65 41.245 155.86 41.245C156.34 41.245 156.76 40.99 157.12 40.48C157.51 40 157.705 39.085 157.705 37.735V35.125C157.195 35.305 156.685 35.515 156.175 35.755C155.695 35.995 155.275 36.265 154.915 36.565C154.525 36.895 154.21 37.255 153.97 37.645C153.73 38.065 153.61 38.515 153.61 38.995ZM179.917 30.49C180.817 30.49 181.612 30.37 182.302 30.13C182.992 29.89 183.607 29.575 184.147 29.185C184.687 28.765 185.182 28.285 185.632 27.745C186.082 27.175 186.517 26.575 186.937 25.945H188.467C188.047 26.995 187.537 28.015 186.937 29.005C186.367 29.995 185.647 30.88 184.777 31.66C183.937 32.44 182.947 33.07 181.807 33.55C180.667 34.03 179.332 34.27 177.802 34.27C176.512 34.27 175.327 34.075 174.247 33.685C173.167 33.295 172.222 32.695 171.412 31.885C170.632 31.045 170.017 29.98 169.567 28.69C169.147 27.37 168.937 25.795 168.937 23.965C168.937 22.675 169.072 21.295 169.342 19.825C169.642 18.325 170.152 16.945 170.872 15.685C171.592 14.425 172.567 13.375 173.797 12.535C175.027 11.695 176.587 11.275 178.477 11.275C179.917 11.275 181.027 11.5 181.807 11.95C182.587 12.4 183.157 12.925 183.517 13.525C183.907 14.125 184.132 14.71 184.192 15.28C184.282 15.85 184.327 16.255 184.327 16.495C184.327 17.845 184.072 19.03 183.562 20.05C183.082 21.07 182.422 21.94 181.582 22.66C180.772 23.35 179.827 23.89 178.747 24.28C177.697 24.64 176.617 24.85 175.507 24.91C175.537 26.92 175.867 28.36 176.497 29.23C177.157 30.07 178.297 30.49 179.917 30.49ZM180.862 16.54C180.862 15.49 180.682 14.755 180.322 14.335C179.962 13.885 179.572 13.66 179.152 13.66C178.642 13.66 178.177 13.915 177.757 14.425C177.337 14.905 176.962 15.565 176.632 16.405C176.332 17.215 176.077 18.175 175.867 19.285C175.687 20.395 175.567 21.55 175.507 22.75C176.257 22.69 176.962 22.495 177.622 22.165C178.282 21.805 178.852 21.355 179.332 20.815C179.812 20.245 180.187 19.6 180.457 18.88C180.727 18.16 180.862 17.38 180.862 16.54ZM193.408 2.5V26.8C193.408 28.06 193.573 28.9 193.903 29.32C194.263 29.71 194.878 29.905 195.748 29.905C196.618 29.905 197.338 29.53 197.908 28.78C198.508 28.03 198.853 27.085 198.943 25.945H200.833C200.593 27.775 200.173 29.245 199.573 30.355C198.973 31.435 198.298 32.275 197.548 32.875C196.798 33.445 196.033 33.82 195.253 34C194.473 34.18 193.783 34.27 193.183 34.27C190.873 34.27 189.253 33.64 188.323 32.38C187.393 31.09 186.928 29.395 186.928 27.295V3.4L193.408 2.5ZM205.405 11.5V26.8C205.405 28.06 205.57 28.9 205.9 29.32C206.26 29.71 206.875 29.905 207.745 29.905C208.615 29.905 209.335 29.53 209.905 28.78C210.505 28.03 210.85 27.085 210.94 25.945H212.83C212.59 27.775 212.17 29.245 211.57 30.355C210.97 31.435 210.295 32.275 209.545 32.875C208.795 33.445 208.03 33.82 207.25 34C206.47 34.18 205.78 34.27 205.18 34.27C202.87 34.27 201.25 33.64 200.32 32.38C199.39 31.09 198.925 29.395 198.925 27.295V11.5H205.405ZM198.43 5.515C198.43 4.525 198.775 3.685 199.465 2.995C200.155 2.275 200.995 1.915 201.985 1.915C202.975 1.915 203.815 2.275 204.505 2.995C205.225 3.685 205.585 4.525 205.585 5.515C205.585 6.505 205.225 7.345 204.505 8.035C203.815 8.725 202.975 9.07 201.985 9.07C200.995 9.07 200.155 8.725 199.465 8.035C198.775 7.345 198.43 6.505 198.43 5.515ZM221.767 18.475C221.827 18.235 221.857 18.025 221.857 17.845C221.887 17.665 221.902 17.425 221.902 17.125C221.902 15.895 221.722 15.01 221.362 14.47C221.032 13.93 220.597 13.66 220.057 13.66C219.457 13.66 218.932 13.975 218.482 14.605C218.062 15.205 217.702 15.985 217.402 16.945C217.132 17.875 216.922 18.925 216.772 20.095C216.652 21.265 216.592 22.405 216.592 23.515C216.592 24.925 216.682 26.08 216.862 26.98C217.072 27.88 217.372 28.585 217.762 29.095C218.152 29.605 218.632 29.965 219.202 30.175C219.802 30.385 220.477 30.49 221.227 30.49C222.127 30.49 222.907 30.37 223.567 30.13C224.257 29.89 224.872 29.575 225.412 29.185C225.952 28.765 226.447 28.285 226.897 27.745C227.347 27.175 227.782 26.575 228.202 25.945H229.732C229.312 26.995 228.802 28.015 228.202 29.005C227.632 29.995 226.912 30.88 226.042 31.66C225.202 32.44 224.197 33.07 223.027 33.55C221.887 34.03 220.552 34.27 219.022 34.27C217.762 34.27 216.592 34.09 215.512 33.73C214.432 33.34 213.487 32.74 212.677 31.93C211.897 31.09 211.282 30.01 210.832 28.69C210.412 27.37 210.202 25.78 210.202 23.92C210.202 22.66 210.322 21.295 210.562 19.825C210.832 18.325 211.312 16.945 212.002 15.685C212.692 14.425 213.622 13.375 214.792 12.535C215.992 11.695 217.537 11.275 219.427 11.275C220.597 11.275 221.557 11.44 222.307 11.77C223.087 12.1 223.702 12.52 224.152 13.03C224.602 13.51 224.917 14.05 225.097 14.65C225.277 15.22 225.367 15.775 225.367 16.315C225.367 17.095 225.202 17.74 224.872 18.25C224.572 18.76 224.152 19.015 223.612 19.015C223.372 19.015 223.087 18.97 222.757 18.88C222.427 18.79 222.097 18.655 221.767 18.475ZM227.697 5.515C227.697 4.525 228.042 3.685 228.732 2.995C229.422 2.275 230.262 1.915 231.252 1.915C232.242 1.915 233.082 2.275 233.772 2.995C234.492 3.685 234.852 4.525 234.852 5.515C234.852 6.505 234.492 7.345 233.772 8.035C233.082 8.725 232.242 9.07 231.252 9.07C230.262 9.07 229.422 8.725 228.732 8.035C228.042 7.345 227.697 6.505 227.697 5.515ZM234.672 11.5V26.8C234.672 28.06 234.837 28.9 235.167 29.32C235.527 29.71 236.142 29.905 237.012 29.905C237.402 29.905 237.687 29.875 237.867 29.815C238.077 29.755 238.257 29.695 238.407 29.635C238.437 29.785 238.452 29.935 238.452 30.085C238.452 30.235 238.452 30.385 238.452 30.535C238.452 31.285 238.317 31.9 238.047 32.38C237.807 32.86 237.477 33.25 237.057 33.55C236.667 33.82 236.232 34 235.752 34.09C235.302 34.21 234.867 34.27 234.447 34.27C232.137 34.27 230.517 33.64 229.587 32.38C228.657 31.09 228.192 29.395 228.192 27.295V11.5H234.672Z" fill="#F15E42"/>
</svg>
