<?xml version="1.0" standalone="no"?>
<!DOCTYPE svg PUBLIC "-//W3C//DTD SVG 20010904//EN"
 "http://www.w3.org/TR/2001/REC-SVG-20010904/DTD/svg10.dtd">
<svg version="1.0" xmlns="http://www.w3.org/2000/svg"
 width="177.000000pt" height="42.000000pt" viewBox="0 0 177.000000 42.000000"
 preserveAspectRatio="xMidYMid meet">

<g transform="translate(0.000000,42.000000) scale(0.100000,-0.100000)"
fill="#000000" stroke="none">
<path d="M257 309 c-9 -5 -24 -23 -32 -39 -11 -20 -23 -30 -39 -30 -31 0 -54
-26 -38 -42 9 -9 15 -7 26 8 21 28 26 16 15 -39 -6 -32 -5 -56 1 -68 19 -34
30 -20 30 35 0 67 7 86 31 86 16 0 19 -8 19 -55 0 -48 2 -55 20 -55 19 0 20 7
20 105 0 93 -2 105 -17 105 -10 0 -26 -5 -36 -11z m13 -44 c0 -24 -5 -35 -15
-35 -18 0 -19 9 -5 44 13 36 20 32 20 -9z"/>
<path d="M1142 308 c-8 -8 -12 -51 -12 -129 0 -85 -3 -119 -12 -122 -7 -3 -3
-6 9 -6 12 -1 24 3 27 8 3 4 6 56 7 115 1 74 5 111 15 120 14 14 9 26 -11 26
-6 0 -16 -5 -23 -12z"/>
<path d="M480 290 c0 -15 5 -20 18 -18 9 2 17 10 17 18 0 8 -8 16 -17 18 -13
2 -18 -3 -18 -18z"/>
<path d="M923 303 c-9 -3 -13 -30 -13 -84 0 -64 -3 -79 -15 -79 -12 0 -15 13
-15 55 l0 55 -44 0 c-51 0 -66 -14 -73 -70 -8 -60 -31 -52 -35 13 l-3 52 -82
1 -83 2 0 -38 c0 -48 -8 -70 -26 -70 -10 0 -14 15 -14 55 0 48 -3 55 -19 55
-17 0 -20 -8 -23 -52 -4 -61 -28 -81 -28 -23 0 58 -13 73 -65 73 l-45 0 0 -69
c0 -62 2 -69 20 -69 16 0 19 8 22 58 4 68 21 72 28 6 6 -55 28 -76 60 -57 10
7 22 9 25 4 3 -5 25 -9 50 -9 l45 1 0 43 c0 88 28 103 32 17 2 -46 7 -59 21
-61 14 -3 17 4 17 45 0 57 14 87 30 63 5 -8 10 -31 10 -51 0 -46 23 -68 51
-51 15 10 23 9 39 0 15 -10 25 -10 38 -2 12 8 22 8 35 0 12 -8 22 -8 36 1 14
9 21 9 30 0 8 -8 19 -8 39 -1 19 8 33 7 45 0 12 -8 20 -7 29 3 10 11 10 14 1
18 -8 3 -13 25 -13 59 0 47 -3 54 -19 54 -17 0 -20 -8 -23 -52 -2 -39 -7 -53
-18 -53 -12 0 -16 17 -18 83 -2 45 -6 82 -10 81 -4 0 -13 -3 -19 -6z m-83
-119 c0 -38 -3 -45 -17 -42 -22 4 -29 48 -13 78 16 31 30 15 30 -36z"/>
<path d="M990 290 c0 -15 5 -20 18 -18 9 2 17 10 17 18 0 8 -8 16 -17 18 -13
2 -18 -3 -18 -18z"/>
<path d="M1395 300 c-4 -6 -3 -16 3 -22 6 -6 12 -6 17 2 4 6 3 16 -3 22 -6 6
-12 6 -17 -2z"/>
<path d="M1575 300 c-4 -6 -3 -16 3 -22 6 -6 12 -6 17 2 4 6 3 16 -3 22 -6 6
-12 6 -17 -2z"/>
<path d="M1320 232 c0 -74 -16 -102 -57 -102 -19 0 -21 6 -21 50 -1 36 4 52
16 60 16 9 16 9 0 10 -39 0 -66 -57 -49 -103 8 -22 17 -27 42 -27 18 0 41 7
51 17 17 15 18 15 18 0 0 -13 8 -17 33 -16 17 1 24 3 15 6 -15 4 -18 17 -18
89 0 68 -3 84 -15 84 -12 0 -15 -14 -15 -68z"/>
<path d="M1392 188 c3 -57 5 -63 26 -66 13 -2 29 2 37 8 9 7 15 8 20 0 3 -5
21 -9 38 -9 23 1 26 3 10 6 -27 5 -37 33 -28 79 6 34 35 49 35 18 0 -8 5 -12
10 -9 15 9 -7 35 -30 35 -26 0 -43 -26 -49 -73 -4 -28 -11 -42 -21 -42 -11 0
-16 14 -18 58 -2 43 -7 57 -18 57 -12 0 -14 -12 -12 -62z"/>
<path d="M1570 201 c0 -65 7 -81 37 -81 22 0 23 1 9 16 -10 10 -16 33 -16 65
0 37 -4 49 -15 49 -11 0 -15 -12 -15 -49z"/>
<path d="M1273 209 c-12 -30 -11 -32 3 -17 9 8 14 23 12 33 -2 12 -7 7 -15
-16z"/>
</g>
</svg>
