<svg width="52" height="52" viewBox="0 0 52 52" fill="none" xmlns="http://www.w3.org/2000/svg">
<path d="M18.0911 6.50037C20.6478 6.13203 23.3561 8.92703 24.1361 12.7837C24.9161 16.6187 23.5078 20.042 20.9511 20.432C18.4161 20.822 15.6861 18.027 14.8845 14.1704C14.0828 10.3354 15.5345 6.91203 18.0911 6.50037ZM33.5828 6.50037C36.1611 6.91203 37.5911 10.3354 36.8328 14.1704C36.0095 18.027 33.3011 20.822 30.7445 20.432C28.1661 20.042 26.7578 16.6187 27.5595 12.7837C28.3395 8.92703 31.0478 6.13203 33.5828 6.50037ZM6.49947 16.467C8.96947 15.4054 12.3278 17.3337 14.0828 20.692C15.7295 24.1154 15.1661 27.712 12.7178 28.7737C10.2695 29.8354 6.93281 27.9287 5.22114 24.527C3.50947 21.1254 4.11614 17.507 6.49947 16.467ZM45.4995 16.467C47.8828 17.507 48.4895 21.1254 46.7778 24.527C45.0661 27.9287 41.7295 29.8354 39.2811 28.7737C36.8328 27.712 36.2695 24.1154 37.9161 20.692C39.6711 17.3337 43.0295 15.4054 45.4995 16.467ZM41.8811 39.8237C41.9678 41.8604 40.4078 44.1137 38.5445 44.9587C34.6661 46.7354 30.0728 43.052 25.7611 43.052C21.4495 43.052 16.8128 46.887 12.9995 44.9587C10.8328 43.897 9.33781 41.0804 9.61947 38.7404C10.0095 35.512 13.8878 33.7787 16.1845 31.417C19.2395 28.362 21.4061 22.6204 25.7611 22.6204C30.0945 22.6204 32.3911 28.2754 35.3161 31.417C37.7211 34.0604 41.7295 36.292 41.8811 39.8237Z" fill="#27304B"/>
</svg>
